<svg viewBox="0 0 10.9219 9.58301" xmlns="http://www.w3.org/2000/svg" xmlns:xlink="http://www.w3.org/1999/xlink" width="10.921875" height="9.583008" fill="none" customFrame="#000000">
	<path id="Vector" d="M10.8934 3.62089C10.8215 3.4184 10.6253 3.27504 10.3941 3.25589L7.2413 2.99382L5.99529 0.322881C5.90329 0.12665 5.69397 0 5.46098 0C5.22799 0 5.01858 0.12665 4.92717 0.322881L3.68115 2.99382L0.527813 3.25589C0.296658 3.27543 0.100918 3.41878 0.0285885 3.62089C-0.0433245 3.82338 0.0230888 4.04547 0.197913 4.18586L2.58121 6.09926L1.87849 8.93301C1.82708 9.14138 1.91541 9.35683 2.10423 9.4818C2.20573 9.54933 2.32497 9.58305 2.44463 9.58305C2.54746 9.58305 2.65037 9.55802 2.74228 9.50767L5.46098 8.0193L8.17917 9.50767C8.37858 9.61677 8.62932 9.60678 8.81773 9.4818C9.00655 9.35683 9.09488 9.14138 9.04346 8.93301L8.34075 6.09926L10.724 4.18586C10.8988 4.04547 10.9653 3.82383 10.8934 3.62089Z" fill="rgb(245,195,75)" fill-rule="nonzero" />
</svg>
