<svg viewBox="0 0 33 35" xmlns="http://www.w3.org/2000/svg" xmlns:xlink="http://www.w3.org/1999/xlink" width="33.000000" height="35.000000" fill="none">
	<rect id="shield 1" width="33.000000" height="35.000000" x="0.000000" y="0.000000" fill="rgb(255,255,255)" fill-opacity="0" />
	<g id="surface1">
		<path id="Vector" d="M30.5177 9.49639L30.5167 9.46915C30.5023 9.13296 30.4928 8.77728 30.487 8.38155C30.4601 6.45173 29.0136 4.85544 27.1938 4.74756C23.3997 4.52299 20.4646 3.21081 17.9567 0.618237L17.9353 0.596608C17.1173 -0.198869 15.8834 -0.198869 15.0651 0.596608L15.0437 0.618237C12.5358 3.21081 9.60071 4.52299 5.80655 4.74783C3.98701 4.85544 2.54035 6.45173 2.51341 8.38181C2.50787 8.77488 2.49805 9.13056 2.4837 9.46915L2.48219 9.53244C2.40842 13.6359 2.31678 18.7428 3.9276 23.3781C4.81332 25.9272 6.15475 28.143 7.91436 29.9644C9.91845 32.0386 12.5434 33.6854 15.7162 34.8587C15.8194 34.8969 15.9267 34.9279 16.0359 34.9511C16.19 34.9837 16.3451 35 16.5002 35C16.6553 35 16.8106 34.9837 16.9645 34.9511C17.0737 34.9279 17.1817 34.8966 17.2855 34.8582C20.4545 33.6827 23.0767 32.0352 25.079 29.9612C26.8378 28.1392 28.1793 25.9229 29.0658 23.3733C30.6826 18.7241 30.5912 13.6076 30.5177 9.49639ZM27.249 22.6627C25.55 27.5483 22.0819 30.9035 16.6465 32.9196C16.6271 32.9265 16.6064 32.9326 16.585 32.9372C16.5289 32.9489 16.4717 32.9489 16.4148 32.9369C16.3937 32.9324 16.3731 32.9265 16.3539 32.9196C10.9127 30.9072 7.4423 27.5539 5.74462 22.6681C4.25993 18.3954 4.34402 13.7074 4.41829 9.57169L4.4188 9.54873C4.4339 9.19331 4.44398 8.82107 4.44951 8.41199C4.4616 7.55509 5.10512 6.84613 5.91456 6.79834C8.06165 6.67123 9.9479 6.23117 11.6811 5.45305C13.412 4.676 14.9493 3.58065 16.3804 2.10452C16.4531 2.03936 16.5475 2.03909 16.62 2.10452C18.0513 3.58065 19.5887 4.676 21.3193 5.45305C23.0525 6.23117 24.9387 6.67123 27.0861 6.79834C27.8955 6.84613 28.5391 7.55509 28.5509 8.41225C28.5567 8.82348 28.5667 9.19571 28.5819 9.54873C28.6559 13.6893 28.7379 18.3809 27.249 22.6627Z" fill="rgb(4,30,66)" fill-rule="nonzero" />
		<path id="Vector" d="M8.22407 0C3.68919 0 0 3.91304 0 8.7225C0 13.5322 3.68919 17.4453 8.22407 17.4453C12.7587 17.4453 16.4481 13.5322 16.4481 8.7225C16.4481 3.91304 12.7587 0 8.22407 0ZM8.22407 15.3913C4.75694 15.3913 1.93636 12.3997 1.93636 8.7225C1.93636 5.04524 4.75694 2.05372 8.22407 2.05372C11.6909 2.05372 14.5115 5.04524 14.5115 8.7225C14.5115 12.3997 11.6909 15.3913 8.22407 15.3913Z" fill="rgb(4,30,66)" fill-rule="nonzero" transform="matrix(0.999498,-0.0316964,0.0316964,0.999498,8.00293,9.04395)" />
		<path id="Vector" d="M18.863 14.7922L15.0431 18.8436L14.0063 17.7439C13.6282 17.3429 13.0151 17.3429 12.6369 17.7439C12.259 18.145 12.259 18.7952 12.6369 19.196L14.3585 21.022C14.5476 21.2225 14.7954 21.3227 15.0431 21.3227C15.2909 21.3227 15.5386 21.2225 15.7277 21.022L20.2323 16.2443C20.6103 15.8432 20.6103 15.193 20.2323 14.7922C19.8542 14.3909 19.2411 14.3909 18.863 14.7922Z" fill="rgb(4,30,66)" fill-rule="nonzero" />
	</g>
</svg>
